<svg xmlns="http://www.w3.org/2000/svg" viewBox="0 0 244 262"><path fill="#f9c865" d="m150 17 3.7 1a106 106 0 0 1 63.5 51.8c13 25.3 16.6 53.5 9.8 81.2l-2 5.3c-1.1 3.2-1.2 4.3.1 7.4l1.7 3A32 32 0 0 1 230 189a37 37 0 0 1-12 18h-2l-.5 2c-3.8 7.6-11.8 12-19.5 15l-9.6 2.5a48 48 0 0 0-11.5 4.6A45 45 0 0 1 145 234l-1 3c-2.2 1.4-2.2 1.4-5 2.7l-2.7 1.3c-2.3 1-2.3 1-4.3 1l-1 3c-5 2.8-8.2 3.5-14 2-2.3-1.2-2.3-1.2-5-3l-7.6-3.6C102 239 102 239 100.1 236.8c-3-2.6-5-2-9-1.8a46 46 0 0 1-25.6-5.5A28 28 0 0 0 56 226.3C45 223.5 34.3 218.9 28 209v-2l-1.8-.8c-6.3-3.5-9.3-11-11.5-17.5A33 33 0 0 1 17 167l1.7-2c1.3-2 1.3-2 1-4.3l-.8-2.5-1-3L17 152a109 109 0 0 1 1-62l.6-2A110 110 0 0 1 74.4 24.2c23-11 51-14.2 75.6-7.1"/><path fill="#e33e29" d="M177.7 56.3A85 85 0 0 1 208 110q.4 5.9.3 11.8v3.1A67 67 0 0 1 196 166l-3 2.4a18 18 0 0 0-6 9.6h-7l-.2-1.8a42 42 0 0 0-15.3-26.4A44 44 0 0 0 146 141v-2l3.6-2.6q10.7-7.8 14-20.6A47 47 0 0 0 160 85l-1.3-2.4A44 44 0 0 0 133.7 64a47 47 0 0 0-34.5 4.7A46 46 0 0 0 79.4 95a45 45 0 0 0 6.3 33.4c3.3 4 7.1 6.8 11.3 9.6l-1 3c-1.9.9-1.9.9-4.4 1.7a48 48 0 0 0-25.5 23.5A34 34 0 0 0 64 176l2.2.3a17 17 0 0 1 7 3.7c4.2 3 7.2 3.5 12.2 3.7 6 .6 11.4 3.6 16.6 6.3l1.1-1.5c2.7-2.2 4.5-1.8 7.9-1.5 2.4 1 2.4 1 4 2v2h-1.9l-2.5-.1-2.4-.1C106 191 106 191 104 193c-.2 2-.2 2-.1 4.1l.1 3.9 1.9-1a41 41 0 0 1 24.1-4l.4-2.4C131 191 131 191 132 190c2.8-.3 4.4-.5 6.7 1.2 1.3 1.8 1.3 1.8 1.4 4l-.4 2.5-.4 2.4-.3 1.9h-2l-1 3-2.9-2a26 26 0 0 0-17.8-2.4q-7.2 2.9-11.5 9.3a27 27 0 0 0 .1 17c2.9 4.3 6.3 5.5 11.1 7.1v-2h-2v-3h4l2 9h5c2.8-2.8 2.6-5.2 3-9h2l-1 5 9-3v5c-3 1.8-4.2 2-8 2l-.9 2c-1.1 2-1.1 2-3.1 3-3.4.3-3.4.3-7 0l-4-4-4.4-2a22 22 0 0 1-9.6-7v-2l-2-1-.2-7.1v-2c-.1-4.9 1-7.7 3.2-11.9q.3-5.8-2-11a25 25 0 0 0-8-5l-2-1-6.3-.3c-6.3-.4-6.3-.4-9.6-3L71 183a37 37 0 0 0-8-3.6c-4.2-1.3-5.6-1.8-8-5.7l-1-2a10 10 0 0 0-4.3-4C43.6 162.7 41.5 154 39 147l-1.1-3a83 83 0 0 1 7-60.7A94 94 0 0 1 82 46l2.4-1.5c29.8-16.6 67.8-8.2 93.3 11.8"/><path fill="#fceac5" d="M149.5 71c7.8 6 13.4 14.4 15.5 24 .7 14 .3 25.8-9 37a59 59 0 0 1-8 7h-2v2h2.8c8.8 1.3 17.8 8 23.2 15 4.4 6.5 7.8 12 8 20l-1.8.7-2.4 1-2.3 1c-2.5 1.3-2.5 1.3-4.8 3.4-3.4 2.4-6 2.6-10 2.9a24 24 0 0 0-11.8 3.2c-2.9 1.8-2.9 1.8-5.2 1.5L139 189c-11.3-2.9-22.6-5-34-1-1.8 1.6-1.8 1.6-3 3l-1.7-.9a43 43 0 0 0-17.4-5.5c-5-.3-7.9-2.1-11.8-5.1A29 29 0 0 0 64 176c-1-8 3.1-13.9 7.6-20.2 6.4-8 15-12.5 24.4-15.8l1-2-2-.6C85.8 133 81.8 124.4 78.6 115.2a43 43 0 0 1 4.8-31.9 46 46 0 0 1 28.3-20.8 48 48 0 0 1 37.7 8.6"/><path fill="#aa671d" d="m150 17 3.7 1a106 106 0 0 1 63.5 51.8c13 25.3 16.6 53.5 9.8 81.2l-2 5.3c-1.1 3.2-1.2 4.3.1 7.4l1.7 3A32 32 0 0 1 230 189a37 37 0 0 1-12 18h-2l-.5 2c-3.8 7.6-11.8 12-19.5 15l-9.6 2.5a48 48 0 0 0-11.5 4.6A45 45 0 0 1 145 234l-1 3c-2.2 1.4-2.2 1.4-5 2.7l-2.7 1.3c-2.3 1-2.3 1-4.3 1l-1 3c-5 2.8-8.2 3.5-14 2-2.3-1.2-2.3-1.2-5-3l-7.6-3.6C102 239 102 239 100.1 236.8c-3-2.6-5-2-9-1.8a46 46 0 0 1-25.6-5.5A28 28 0 0 0 56 226.3C45 223.5 34.3 218.9 28 209v-2l-1.8-.8c-6.3-3.5-9.3-11-11.5-17.5A33 33 0 0 1 17 167l1.7-2c1.3-2 1.3-2 1-4.3l-.8-2.5-1-3L17 152a109 109 0 0 1 1-62l.6-2A110 110 0 0 1 74.4 24.2c23-11 51-14.2 75.6-7.1M58 46l-2.6 2c-18 15.2-30 39-32.2 62.3-1.3 17.2-.6 35.1 7.3 50.8.5 1.9.5 1.9-.3 4C29 167 29 167 27 169.6c-4.4 5.4-3.7 12.7-3 19.4q3 7.6 10 12h2l.4 2.6A26 26 0 0 0 51 215.9a37 37 0 0 0 9.8 1.5c4.7.4 6.8 1.3 10.3 4.6 5.6 3 10 3.4 16.3 3.3h2.5c5.9-.1 5.9-.1 8.2-1.3v4h2l.6 1.7c2.6 4.4 6.4 7 11 9 3.4 1.3 3.4 1.3 4.9 3 1.5 1.3 1.5 1.3 5 1.7 3.6-.4 5-.8 7.5-3.4v-2l2.9-.4c3-.6 3-.6 5-2.6v-4l-9 3 1-5h-2l-.4 3.4C126 236 126 236 124 238h-5l-2-9h-4v3h2v2c-4.8-1.6-8.2-2.8-11-7a25 25 0 0 1 .6-18.4L107 206l2.5-2.8c4.5-3.5 10-3.5 15.5-3.2 3 .7 5.2 1.6 8 3l2.5 1.2 1.5.8v-3h2l.7-4.3.4-2.4c-.1-2.3-.1-2.3-1.4-4-2.3-1.8-3.9-1.7-6.7-1.3l-2 2v4l-2.9-.2A38 38 0 0 0 104 201c-.2-6-.2-6 0-8 2-2 2-2 4.2-2.2h2.4l2.5.1 1.9.1v-2l-2-2c8.3-4.2 20.3.5 28.7 2.7 3.1.4 4.4-1 7-2.7 3.2-1.4 6.4-1.6 9.9-2 6.1-.6 9-1.6 13.4-6a70 70 0 0 1 8-3v2l-1.6.7c-3.6 1.7-6 2.8-8.6 6-4 3.3-7.5 2.8-12.6 3A20 20 0 0 0 144 194l-1.1 4.4-.5 2.3a16 16 0 0 0 1.1 10c1.8 4.5 1.8 8.5 1.5 13.3 7 3.8 14.5 2.4 21.8.3a22 22 0 0 0 8.7-4.4c3-2.3 5-2.5 8.8-2.9A35 35 0 0 0 207 206l3-5 2.4-1.4c4.1-2.5 5.9-6 7.8-10.3A29 29 0 0 0 219 170l-5-5c-1.3-4-.3-5.4 1.3-9.3A99 99 0 0 0 212.9 81 104 104 0 0 0 156.6 28.3 101 101 0 0 0 58 46"/><path fill="#f9f4ee" d="m150 17 3.7 1a106 106 0 0 1 63.5 51.8c13 25.3 16.6 53.5 9.8 81.2l-2 5.3c-1.1 3.2-1.2 4.3.1 7.4l1.7 3A32 32 0 0 1 230 189a37 37 0 0 1-12 18h-2l-.5 2c-3.8 7.6-11.8 12-19.5 15l-9.6 2.5a48 48 0 0 0-11.5 4.6A45 45 0 0 1 145 234l-1 3c-2.2 1.4-2.2 1.4-5 2.7l-2.7 1.3c-2.3 1-2.3 1-4.3 1l-1 3c-5 2.8-8.2 3.5-14 2-2.3-1.2-2.3-1.2-5-3l-7.6-3.6C102 239 102 239 100.1 236.8c-3-2.6-5-2-9-1.8a46 46 0 0 1-25.6-5.5A28 28 0 0 0 56 226.3C45 223.5 34.3 218.9 28 209v-2l-1.8-.8c-6.3-3.5-9.3-11-11.5-17.5A33 33 0 0 1 17 167l1.7-2c1.3-2 1.3-2 1-4.3l-.8-2.5-1-3L17 152a109 109 0 0 1 1-62l.6-2A110 110 0 0 1 74.4 24.2c23-11 51-14.2 75.6-7.1M44.3 52.3A109 109 0 0 0 21 97l-.9 3.3c-4.8 19.3-2 39.8 4 58.6 1.2 4.4 1.2 4.4-.3 7.3l-3.3 4.3c-3.4 5.7-2.4 13-.8 19.1A39 39 0 0 0 30 204h2l.5 2c4.1 8.2 12.7 12.4 21 15.2q3.9.9 7.6 1.2c4.3.7 5.7 1.8 8.9 4.6 6 2.9 12 3.2 18.6 3.2h4c3.1-.2 4.8-.5 7.4-2.2l.6 1.7c2.6 4.4 6.4 7 11 9 3.4 1.3 3.4 1.3 4.9 3 1.5 1.3 1.5 1.3 5 1.7 3.6-.4 5-.8 7.5-3.4v-2l2.6-.2c4.2-1 7.1-3 10.4-5.8l1-2 3.7.1c11 .3 21.2.3 30.9-5.7a17 17 0 0 1 7-2.3A49 49 0 0 0 212 207l2.9-2.8a36 36 0 0 0 11.4-25.7A35 35 0 0 0 222 166l-1.7-1.3C219 163 219 163 219.5 159.4l1.2-4.4 1.2-4.7L223 146a99 99 0 0 0-3-57l-.8-2.5A98 98 0 0 0 197 50l-2.2-2.5A94 94 0 0 0 135.3 19C99 17.7 70 25.7 44.3 52.3"/><path fill="#fbf9f4" d="M211 163c4 2 6.7 4.1 9 8q3.5 11.4-1.9 22c-3.6 6.3-3.6 6.3-7.1 8-2 1-2 1-3.7 3.7a30 30 0 0 1-27 12.8c-3.1.7-4.8 2.5-7.3 4.5-8.4 3.5-17.3 5.8-26.1 3l-1.9-1 .1-1.7A34 34 0 0 0 142 207c0-5.8.2-11.1 4.3-15.4a25 25 0 0 1 14-3.8c6.1-.3 8.7-1.8 13-6.1 3.3-3.2 7.2-3.6 11.6-3.8l2.1.1.1-2c1.5-5.1 5-8.6 9.2-11.7 4.7-2.3 9.6-2 14.7-1.3"/><path fill="#fcf9f5" d="M46.6 164c5.1 3 9.5 7.2 11.4 13 2 .7 2 .7 4.6 1.3 5.3 1.5 9.5 3.8 13.4 7.7v2l2.5-.2c7.9-.3 13.2.4 19.5 5.2 3.4 3.4 3.7 8.3 4 13-1.3 3-1.3 3-3 6q-.6 4.8-.7 9.5L98 224c-6 3-17 2-23.3 0A31 31 0 0 1 66 218c-2.3-.3-2.3-.3-5-.4A36 36 0 0 1 38 207l-2-6-5-2c-5.3-5.6-7.3-9.2-7.3-16.9v-3.6c.6-6.4 3.5-10.3 8.3-14.5a23 23 0 0 1 14.6 0"/><path fill="#c12b15" d="M177.7 56.3A85 85 0 0 1 208 110q.4 5.9.3 11.8v3.1A67 67 0 0 1 196 166l-3 2.4a18 18 0 0 0-6 9.6h-7l-.2-1.8a42 42 0 0 0-15.3-26.4A44 44 0 0 0 146 141v-2l3.6-2.6A46 46 0 0 0 164 117l4 2a52 52 0 0 1-11 19v2l6 4a57 57 0 0 1 21 26 36 36 0 0 0 13-17l1.4-3.3A83 83 0 0 0 203 119v-3.7a79 79 0 0 0-24.9-53A77 77 0 0 0 124.9 42.8h-6.6a64 64 0 0 0-31.5 7.1l-2 1Q77.3 54.7 71 60l-1.7 1.3a82 82 0 0 0-28 49.4L41 115l-.2 3c-.4 8.2.7 15.5 2.5 23.4l.6 2.8A65 65 0 0 0 50 160v2h2l3.5 4.4c3.3 4.5 3.3 4.5 5.5 5.6l1-3c2 3 2 3 2 7l2.2.3a17 17 0 0 1 7 3.7c4.2 3 7.2 3.5 12.2 3.7 6 .7 11.4 3.6 16.6 6.3l1.1-1.5c2.7-2.2 4.5-1.8 7.9-1.5 2.4 1 2.4 1 4 2v2h-1.9l-2.5-.1-2.4-.1C106 191 106 191 104 193c-.2 2-.2 2-.1 4.1l.1 3.9 1.9-1a41 41 0 0 1 24.1-4l.4-2.4C131 191 131 191 132 190c2.8-.3 4.4-.5 6.7 1.2 1.3 1.8 1.3 1.8 1.4 4l-.4 2.5-.4 2.4-.3 1.9h-2l-1 3-2.9-2a26 26 0 0 0-17.8-2.4q-7.2 2.9-11.5 9.3a27 27 0 0 0 .1 17c2.9 4.3 6.3 5.5 11.1 7.1v-2h-2v-3h4l2 9h5c2.8-2.8 2.6-5.2 3-9h2l-1 5 9-3v5c-3 1.8-4.2 2-8 2l-.9 2c-1.1 2-1.1 2-3.1 3-3.4.3-3.4.3-7 0l-4-4-4.4-2a22 22 0 0 1-9.6-7v-2l-2-1-.2-7.1v-2c-.1-4.9 1-7.7 3.2-11.9q.3-5.8-2-11a25 25 0 0 0-8-5l-2-1-6.3-.3c-6.3-.4-6.3-.4-9.6-3L71 183a37 37 0 0 0-8-3.6c-4.2-1.3-5.6-1.8-8-5.7l-1-2a10 10 0 0 0-4.3-4C43.6 162.7 41.5 154 39 147l-1.1-3a83 83 0 0 1 7-60.7A94 94 0 0 1 82 46l2.4-1.5c29.8-16.6 67.8-8.2 93.3 11.8"/><path fill="#9e5719" d="M217 161a27 27 0 0 1 9.4 17.3A35 35 0 0 1 218 201l-5 4-3.2 3.9a46 46 0 0 1-27.4 14 33 33 0 0 0-10.2 4.1 44 44 0 0 1-22.4 2.7c-6.2-.2-6.2-.2-9.8 2.8l-2 2.5h-2l-1-3-1.8 1c-2.2 1-2.2 1-5.2 1l1-5h-2l.2 3.3c-.2 3.7-.2 3.7-1.4 5.6-2.4 1.5-4 1.5-6.8 1.1-2.4-3.6-2.2-5.7-2-10h-4v3h2v2a13 13 0 0 1-8.7-3.2c-4.2-5.2-4.8-9.7-4.6-16.2A14 14 0 0 1 106 206l1.4-1.7c4.3-4.5 8.5-5.2 14.7-5.5 5.4.4 9.4 2.2 13.9 5.2l1-2h2l.1-4.4.1-2.4C139 193 139 193 137 191h-5l-2 5h-3c-7.6.4-13.4 1-20 5h-3c-1.3-7.3-1.3-7.3 0-10 3-1.5 5.7-1.2 9-1l2 1v-2l-4-2c9.2-5.3 21.2-.8 30.7 1.7 3.1.4 4.4-1 7-2.7 3.2-1.4 6.4-1.6 9.9-2 6.3-.6 9-1.4 13.4-6 3-1.5 4.6-2 8-2v2l2 1-3 .6a14 14 0 0 0-7.6 5c-4.5 4.2-8.4 4-14.3 4.2A17 17 0 0 0 146 193c-1.4 3.4-1.4 3.4-2 7l-1.3 3.1c-.7 2.9-.7 2.9.6 5.5l1.7 2.4c1 3 1.1 5.6 1 8.8v4.2a40 40 0 0 0 27-3l2.5-2c3-2.4 5-2.6 8.8-3A35 35 0 0 0 206 206l2.1-3.2c2-3 2.9-3.3 5.9-4.8a30 30 0 0 0 6-23 28 28 0 0 0-6-10h2z"/><path fill="#fbce6d" d="M134 24v1l-3.4.1-4.6.3h-2.3a53 53 0 0 0-11 1.6 29 29 0 0 1-8.2 1.1C96.7 28.7 89.8 33.3 83 37l.4 3.2C83 44 83 44 80.3 46.3l-3.7 2-3.8 2.4-2 1.1A72 72 0 0 0 59 62l-2.1 2c-15 15.8-20.1 34.4-20 55.6v2.9a66 66 0 0 0 4.6 27.8l2 4.6.8 2C45 159 45 159 46 164H32A97 97 0 0 1 46 58l1.4-1.8A97 97 0 0 1 86 29l1.9-.8C102.7 22.4 118.4 23.5 134 24"/><path fill="#bb2d16" d="M60 63c0 4-1.3 5-3.8 7.9C49 79.5 49 79.5 49 83.7c-.1 4-1.4 7-3 10.7A64 64 0 0 0 41 115l-.2 3c-.4 8.2.7 15.5 2.5 23.4l.6 2.8A65 65 0 0 0 50 160v2h2l3.5 4.4c3.3 4.5 3.3 4.5 5.5 5.6l1-3c2 3 2 3 2 7l2.2.3a17 17 0 0 1 7 3.7c4.2 3 7.2 3.5 12.2 3.7 6 .7 11.4 3.6 16.6 6.3l1.1-1.5c2.7-2.1 4.5-1.8 7.9-1.5 2.4 1 2.4 1 4 2v2h-1.9l-2.5-.1-2.4-.1C106 191 106 191 104 193c-.2 2-.2 2-.1 4.1l.1 3.9 1.9-1a41 41 0 0 1 24.1-4l.4-2.4C131 191 131 191 132 190c2.8-.3 4.4-.5 6.7 1.2 1.3 1.8 1.3 1.8 1.4 4l-.4 2.5-.4 2.4-.3 1.9h-2l-1 3-2.9-2a26 26 0 0 0-17.8-2.4q-7.2 2.9-11.5 9.3a27 27 0 0 0 .1 17c2.9 4.3 6.3 5.5 11.1 7.1v-2h-2v-3h4l2 9h5c2.8-2.8 2.6-5.2 3-9h2l-1 5 9-3v5c-3 1.8-4.2 2-8 2l-.9 2c-1.1 2-1.1 2-3.1 3-3.4.3-3.4.3-7 0l-4-4-4.4-2a22 22 0 0 1-9.6-7v-2l-2-1-.2-7.1v-2c-.1-4.9 1-7.7 3.2-11.9q.3-5.8-2-11a25 25 0 0 0-8-5l-2-1-6.3-.2c-6.3-.5-6.3-.5-9.6-3.2L71 183a37 37 0 0 0-8-3.6c-4.2-1.3-5.6-1.8-8-5.7l-1-2a10 10 0 0 0-4.3-4C43.6 162.7 41.5 154 39 147l-1.1-3A83 83 0 0 1 60 63"/><path fill="#efd7c0" d="M219 171c2.8 4.8 2.6 9.6 2 15a33 33 0 0 1-8 14l-2 1c-2 1-2 1-3.7 3.7a30 30 0 0 1-27 12.8c-3.1.7-4.8 2.5-7.3 4.5-8.4 3.5-17.3 5.8-26.1 3l-1.9-1 .1-1.7A34 34 0 0 0 142 207a35 35 0 0 1 2-11c2 3 3 5.7 4.2 9 .8 2 .8 2 2.8 5v6l5.3-.4 3-.2C162 215 162 215 165 213l2 .5c2 .5 2 .5 4-.4l2.1-1.3 2.1-1.3c2-1.7 2.8-3.1 3.8-5.5h2v3c7.8.7 7.8.7 11.4-2.4C195 203 195 203 196 201h2v2h2l.9-3 3.1-11 3 1v2c3.1-1.1 5.4-2 7-5q1.2-3 2-6h2v-3.9c-.1-3.8-.1-3.8 1-6.1"/><path fill="#f0d8c2" d="M26 183h2l1.6 3c2.4 3 2.4 3 4.4 3.6l6 .4.1 3.7a10 10 0 0 0 3.8 7.4L47 203l3-1 1.8 2.4c2.2 2.6 3 3.3 6.2 3.6v-2l6 2 1-3 1.7 2.8c2.3 3.2 3.7 4.6 7.3 6.2h2.4c3.5 0 5.6 1.4 8.6 3v-2h6l1-4 2 1v-4h2l.4-3.1A52 52 0 0 1 99 195h1c1.7 6.9 2.5 10.6-1 17q-.6 4.8-.7 9.5L98 224c-6 3-17 2-23.3 0A31 31 0 0 1 66 218c-2.3-.3-2.3-.3-5-.4A36 36 0 0 1 38 207l-2-6-5-2c-3.6-3.7-6-7-7-12 .9-2.4.9-2.4 2-4"/><path fill="#fbf3ec" d="M149.5 71.1c3.5 2.7 6 5.3 8.5 8.9l-1 3a27 27 0 0 1-9.2-5.4A40 40 0 0 0 119 69c-11.8 2.1-11.8 2.1-15 6l1 3a20 20 0 0 1-8 9c-2.2 0-2.2 0-4-1l-1-3c-6.3 9.9-9.5 18.3-7.7 30.2A101 101 0 0 0 89 127l-2 1c-3-1-3-1-4.1-2.6A45 45 0 0 1 79.6 91.2 48 48 0 0 1 104 65a47 47 0 0 1 45.5 6.1"/><path fill="#fac75e" d="M129 200c2 2.4 2 2.4 3 5l2 3c.4 2.5.4 2.5.4 5.3l.2 2.8c-.8 4.2-2.5 6-5.6 8.9-2.9.5-5 .7-7.8.7A35 35 0 0 0 105 229c-3.3-3.3-3.2-6.9-3.3-11.4 0-6 1.7-9 6-13.3 6.1-5.8 13.1-6.4 21.3-4.3"/><path fill="#a25b18" d="M161 27c16.7 2.1 31.7 17.2 42.1 29.5A109 109 0 0 1 219 161h-2l-1 4-4-1 .6-1.6C222 134.4 223.8 106.3 211 79A96 96 0 0 0 170.8 36.3L169 35v-3l-6-2v-2z"/><path fill="#934c12" d="M107.9 186.8c3 .2 4.6.7 7.1 2.2v2h-1.9l-2.5-.1-2.4-.1C106 191 106 191 104 193c-.2 2-.2 2-.1 4.1l.1 3.9 1.9-1a41 41 0 0 1 24.1-4l.4-2.4C131 191 131 191 132 190c2.8-.3 4.4-.5 6.7 1.2 1.3 1.8 1.3 1.8 1.4 4l-.4 2.5-.4 2.4-.3 1.9h-2l-1 3-2.9-2a26 26 0 0 0-17.8-2.4q-7.2 2.9-11.5 9.3a27 27 0 0 0 .1 17c2.9 4.3 6.3 5.5 11.1 7.1v-2h-2v-3h4l2 9h5c2.8-2.8 2.6-5.2 3-9h2l-1 5 9-3v5c-3 1.8-4.2 2-8 2l-.9 2c-1.1 2-1.1 2-3.1 3-3.4.3-3.4.3-7 0l-4-4-4.4-2a22 22 0 0 1-9.6-7v-2l-2-1-.2-7.1v-2c-.1-4.9 1-7.7 3.2-11.9 0-2.9 0-2.9-.6-5.6l-.6-2.8A18 18 0 0 0 96 191l3.4-.9c3.6-1.1 4.8-3 8.5-3.3"/><path fill="#aa210d" d="M206 114h1l.1 10.8v3A59 59 0 0 1 196 166l-3 2.4a18 18 0 0 0-6 9.6h-7l-.2-1.8a42 42 0 0 0-15.3-26.4A44 44 0 0 0 146 141v-2l3.6-2.6A46 46 0 0 0 164 117l4 2a52 52 0 0 1-11 19v2l6 4a57 57 0 0 1 21 26c12.6-9.4 17.4-25.9 20-41h2z"/><path fill="#9b6638" d="M26 162c2 3 2 3 3 6l-3 4c-2 6-2.2 13.6 0 19.6 1.9 3.3 3.7 5.2 7 7.4 3 2 3.7 2.9 5.3 6 2.8 4.8 6.7 6.8 11.7 9l2.4 1.1a25 25 0 0 0 8.1 1.3c4.8.3 7 1.2 10.5 4.6a31 31 0 0 0 17.4 3.2h2.8L98 224l1-2-1 7c-5.4 2.7-15.6 1.6-21.5.3A30 30 0 0 1 65 223l-5-.8a44 44 0 0 1-26.5-14C32 206 32 206 32 204l-1.8-.8A24 24 0 0 1 19.5 189.4c-1.7-8.4-1.7-15.4 3-22.8z"/><path fill="#f9eebe" d="M134 24v1l-3.4.1-4.6.3h-2.3A71 71 0 0 0 109 28l-4.9.4A48 48 0 0 0 89 33l-4.1 1.5A91 91 0 0 0 60 50l-2.7 2A78 78 0 0 0 42.5 70L41 72h-2l-.3 2.8c-.7 3.2-.7 3.2-2 5-2.3 3-3.4 6.3-4.7 9.8l-.8 2.1A162 162 0 0 0 26 109h-1C23 90.5 34.9 71.8 46 58l1.4-1.8A97 97 0 0 1 86 29l1.9-.8C102.7 22.4 118.4 23.5 134 24"/><path fill="#e99f36" d="M130 201c5.7 1.6 8.5 5.3 11.3 10.3 1.5 5.8 1.6 10.8-1.4 16A16 16 0 0 1 131 234h-3l1-5h-2l.2 3.3c-.2 3.7-.2 3.7-1.4 5.6-2.4 1.5-4 1.5-6.8 1.1-2.4-3.6-2.2-5.7-2-10h-4v3h2v2c-4.8-.4-7-1.3-10-5 5.6-4.6 11.2-4.2 18.2-4.3 3.7 0 5.5-.4 8.3-3 2.5-4.5 2.3-8.6 1.5-13.7a22 22 0 0 0-4-6z"/><path fill="#a37044" d="M217 161a27 27 0 0 1 9.4 17.3A35 35 0 0 1 218 201l-5 4-3.2 3.9A35 35 0 0 1 188 221c-3-.4-3-.4-5-1v-1l-5-1v-1l2.5-.3A41 41 0 0 0 206 206l2.1-3.2c2-3 2.9-3.3 5.9-4.8a30 30 0 0 0 6-23 28 28 0 0 0-6-10h2z"/><path fill="#fbf5ee" d="M95 144c-1.8 2-1.8 2-4 4h-3l1 2.5c0 4.8-1.8 6.6-5 10-3 2.2-5.4 1.7-9 1.5-4 3.5-5.3 8-7 13h-4c-.2-9 4.2-15.4 10-22 6.7-6.4 11.6-10.8 21-9"/><path fill="#e48f39" d="M121.4 34.8h3c10.5.1 21.4.5 30.6 6.2l1 2-2-.6-2.5-.8L149 41l-3-.9-3.5-1A89 89 0 0 0 78 49a88 88 0 0 0-39.2 51.5L38 104h-1a27 27 0 0 1 3-14.7L41 87A95 95 0 0 1 60 60l2.3-2.3a83 83 0 0 1 59-23"/><path fill="#b87835" d="M137 187v1l-7 1v7h-3c-7.6.4-13.4 1-20 5h-3c-1.3-7.3-1.3-7.3 0-10 3-1.5 5.7-1.2 9-1l2 1v-2l-4-2c7.7-4.5 17.8-1.8 26 0"/><path fill="#a26d3e" d="m55 216 5.6.4A14 14 0 0 1 71 221a31 31 0 0 0 17.4 3.2h2.8L98 224l1-2-1 7c-5.4 2.7-15.6 1.6-21.5.3A30 30 0 0 1 65 223l-5-.8C53.9 221 46.7 219.6 42 215c5-1.2 8-.5 13 1"/><path fill="#a2601c" d="m20 107 3 1v2c.6 35.6.6 35.6 8.5 51 .5 2 .5 2-.4 4.3L30 167h-2l-1-5h-2l-1.9-6.9-.5-1.9L21 147l-.6-2.3a84 84 0 0 1-1.6-20v-3.1A65 65 0 0 1 20 107"/><path fill="#b62c1c" d="m164 117 4 2a52 52 0 0 1-11 19v2l6 4c6 4 10.6 8.4 15 14l-1 2-2-1-1 2-1-1.5a44 44 0 0 0-25-18.2l-2-.3v-2l3.6-2.6A46 46 0 0 0 164 117"/><path fill="#9a5416" d="m221 108 2 1c2 34.6 2 34.6-3 49l-1 3h-2l-1 4-4-1 .6-1.6A166 166 0 0 0 221 108"/><path fill="#9c6434" d="M181.6 217.6h2.4l2 .4 2 3c-1.5 1.5-3 1.4-5 1.8-3.4.7-6 1.6-9 3.2a41 41 0 0 1-20.3 4.3h-2.2c-3.7 0-5.3-.2-8.5-2.3 2.3-2.2 3.6-3 6.8-3.2l3.1.3a35 35 0 0 0 22.2-5.7c2.3-1.7 3.7-1.8 6.5-1.8"/><path fill="#b06010" d="M114 226.8h7.2l3.7.1 9.1.1v2l2 1-7 2v-3h-2l.2 3.3c-.2 3.7-.2 3.7-1.4 5.6-2.4 1.5-4 1.5-6.8 1.1-2.4-3.6-2.2-5.7-2-10h-4v3h2v2c-4.8-.4-7-1.3-10-5 3.5-2.3 4.9-2.2 9-2.2"/><path fill="#a95e16" d="M134.4 189.8c2.6.2 2.6.2 4.3 1.4 1.3 1.8 1.3 1.8 1.4 4l-.4 2.5-.4 2.4-.3 1.9h-2l-1 3-2.9-2a24 24 0 0 0-11.8-2.8A31 31 0 0 1 115 199v-3h15l1-5c1-1 1-1 3.4-1.2"/><path fill="#a9651f" d="m28 77 4 4-.8 2A97 97 0 0 0 24 113h-1l-.4-2.4L22 108l-2-1-1 22h-1A103 103 0 0 1 28 77"/><path fill="#be3e2a" d="M141 66c7.3.5 13.4 6.8 18 12v2l1.8.6c3 2 3.6 4 4.9 7.3l1.2 3.2a30 30 0 0 1 2.2 11v7.1l-.1 5.8-4 1v-1.8c-.5-21.5-.5-21.5-5-29.2l-1.3-2.3A44 44 0 0 0 145 69z"/><path fill="#b77b47" d="M180 176v2l2 1-3 .6a14 14 0 0 0-7.6 5c-4.5 4.2-8.4 4-14.3 4.2-4.5.3-7.2 2-11.1 4.2h-3l-2-3a39 39 0 0 1 17.8-6c6.2-.7 9-1.5 13.2-6 3-1.5 4.6-2 8-2"/><path fill="#b88148" d="m63 172 1 4 2.2.3a17 17 0 0 1 7 3.7c4.2 3 7.2 3.5 12.2 3.7 4.5.5 8.5 2.4 12.6 4.3v3l-3 1-2.4-1.4a23 23 0 0 0-10.2-2c-6-.3-6-.3-9.3-3L71 183c-3-1.7-3-1.7-6-3l-4-2h2z"/><path fill="#a02b1d" d="M175 159c1.8.2 1.8.2 4 1 1.5 2.3 1.5 2.3 2.8 5l1.2 2.8 1 2.2 3.8-3.3 2.2-1.9 5-4.8c.9 2.7.9 2.7 1 6-2.7 2.4-2.7 2.4-4.4 3.6-2.7 2.3-3.4 5.1-4.6 8.4h-7l-.3-2A44 44 0 0 0 175 162z"/><path fill="#94421a" d="M107.9 186.8c3 .2 4.6.7 7.1 2.2v2h-1.9l-2.5-.1-2.4-.1C106 191 106 191 104 193c-.2 2-.2 2-.1 4.1l.1 3.9 1.5-1c3.7-2 5.7-3 10-2.7l2.5.7-3 2-6.2 4.7C107 206 107 206 105 207l-1-2-1 2-2-1q-.9-4.1-1.3-8.2A14 14 0 0 0 96 191l3.4-.9c3.6-1.1 4.8-3 8.5-3.3"/><path fill="#e7a33f" d="M220 111h1c.8 18.9-1 35.8-9 53l-11-2 1-3 9-1c5.3-17.5 5.3-17.5 6.6-25.3C218 131 218 131 219 130q.3-2 .3-4.3l.1-2.5.2-2.8z"/><path fill="#9f6538" d="M217 161a26 26 0 0 1 9.3 17.4c.1 4.6-.6 8.3-2.3 12.6h-5l.5-2.2q.7-4 .7-8.3v-2.8c-.4-5.3-2.8-8.7-6.2-12.7h2z"/><path fill="#ad794c" d="M26 162c2 3 2 3 3 6l-3 4c-1.4 4.2-1.4 8.4-1.6 12.8-.4 3-1.1 5.4-2.4 8.2-4-6.1-4-12.9-3-20a53 53 0 0 1 7-11"/><path fill="#bc4118" d="M60 63c0 4-1.3 5-3.8 7.9C49 79.5 49 79.5 49 83.6c0 2.4 0 2.4-2 4.2a17 17 0 0 0-4.3 8.1l-1 3.1-1.8 8h-1c-1.2 4.9-1.3 9.8-1.6 14.8v2.7q-.3 3.2-.4 6.5h-1c-.9-25.2 3.8-44.2 20-64z"/><path fill="#a35f19" d="M44 57c.4 4.3-.5 6.3-3.1 9.7Q35.5 74 31 82c-2-3-2-3-1.8-5.8a27 27 0 0 1 4.2-8.8l1.8-2.8L37 62l1.5-2.3C40.1 58 41.4 57 44 57"/><path fill="#c72e19" d="m38 119 2 1q.5 3.4.8 7c1 9.5 2.9 20.3 7.2 29l-1 2h-2l-4-11h-2c-1.8-4.2-2-7-1.3-11.5.6-5.5.4-11 .3-16.5"/><path fill="#a05509" d="m128 19 1 3-1.8.2-7.9.7-2.8.3-2.6.3-2.5.2q-3.8.5-7.4 1.3h-8v-3c9.8-4.3 21.5-3.1 32-3"/><path fill="#f3db8a" d="m24 103 3 2q.4 4.4.3 9v2.6l-.1 8.5v5.8L27 145l-2-1a62 62 0 0 1-2.2-20.5v-2.6q0-9 1.2-17.9"/><path fill="#f5e8b0" d="m36 72 1 2h2a76 76 0 0 1-3.9 8.6A128 128 0 0 0 26 109h-1C23.6 95.7 29.8 83.4 36 72"/><path fill="#ad6d28" d="M99 22h-3v3l4 1-7.7 2.4-2.3.7-2.1.7-2 .6L84 31l-2 .6c-3.1.6-6 0-9-.6 5.9-5.1 18.2-11.6 26-9"/><path fill="#faecaf" d="M135 25c16-1 32.4 6.6 45 16l4 4a22 22 0 0 1-9-4.2A125 125 0 0 0 135 26z"/><path fill="#a86021" d="M208 65a70 70 0 0 1 14 28c-.4 2.3-.4 2.3-1 4-3.6-3.3-5.7-5.8-6.3-10.7-1-4.5-3.1-8.3-5.3-12.3-2.5-4.5-2.5-4.5-2.1-7.4z"/><path fill="#9b3c15" d="M130 188c4.8-.5 8-.7 12 2 2.5 3.8 2.6 5.7 2 10-2.2 4.6-2.2 4.6-5 6l-2-1v-3h2l.1-4.4.1-2.4C139 193 139 193 137 191h-8z"/><path fill="#e84428" d="M113 190c1 2 1 2 .4 5-1.6 3.5-2.8 4.4-6.4 6h-3c-1.3-7.3-1.3-7.3 0-10 3-1.5 5.7-1.2 9-1"/><path fill="#fce395" d="m62 47 2 1c.4 2.1.4 2.1 0 5a20 20 0 0 1-11 7c-1.7 1.2-1.7 1.2-3.2 2.6L47 65l-2-1 1.6-1.5C53 56 53 56 55.7 52.7c2-2.4 3.8-4 6.3-5.7"/><path fill="#9e6635" d="m200 211 3 4-4.7 2.4-2.6 1.4A17 17 0 0 1 183 220v-1l-5-1v-1l2.5-.3A54 54 0 0 0 200 211"/><path fill="#e04826" d="M134.4 189.8c2.6.2 2.6.2 4.4 1.3 1.7 2.7 1.5 4.8 1.2 7.9l-1 2c-2.9-.6-3.9-.9-6-3l-5-1 2-1 1-5c1-1 1-1 3.4-1.2"/><path fill="#bb391b" d="M205 105c2 1 2 1 2.6 2.7q.6 4 .5 8v10l-.1 8.3h-1l-1-5h-2v5h-1c-.3-9.8.9-19.3 2-29"/><path fill="#a06a39" d="M23 188c2 1.9 3.4 3.6 5 6a19 19 0 0 0 6 6l-1 6-1-2-1.9-1A19 19 0 0 1 22 195c.1-4 .1-4 1-7"/><path fill="#ebcbad" d="M99 195h1c1.7 6.8 2.7 10.8-1 17q-.7 4.5-1 9h-1l-.4-3.4C96 214 96 214 95 213a45 45 0 0 1 4-18"/><path fill="#b12e1a" d="m84 128 1.3 1.2Q90.8 134 97 138l-1 3-7 1v-3c-1.5-2-1.5-2-3.5-4.2l-2-2.2L82 131c1-2 1-2 2-3"/><path fill="#f3ce9e" d="m160 120 2 1c-1.3 4.7-3 7.6-6.3 11.3l-2.3 2.5A18 18 0 0 1 146 139v2l7 1v1h-9l-1-4 1.8-1.2A46 46 0 0 0 160 120"/><path fill="#a99488" d="m102 256-1 4h-3v2H88v-4c9.8-3.3 9.8-3.3 14-2"/><path fill="#cb9c69" d="m63 172 1 4 2.2.3a17 17 0 0 1 7 3.7c4.8 3.4 9 4 14.8 4v1c-9.2.6-15.4.3-23-5l-4-2h2z"/><path fill="#b52e11" d="m94 43-3.2 1.5a70 70 0 0 0-23 15.9C65.6 62.4 64 62.7 61 63 67.4 54.8 82.8 39.6 94 43"/><path fill="#b52212" d="M165 91h2a44 44 0 0 1 2.1 16v2.3l-.1 5.7-4 1z"/><path fill="#99602f" d="M83.2 225.8h5l2.5.1 6.3.1-1 4-7.2.1h-2c-4 .1-7.1-.3-10.8-2.1 3.1-2 3.7-2.2 7.2-2.2"/><path fill="#f7bb53" d="M121.7 188.8h3l2.3.2 1 2h-5l1 4-11 2c0-5 0-5 1.1-6.8 2.6-1.7 4.5-1.5 7.6-1.4"/><path fill="#a66118" d="M130.4 18.8h2.7l2.8.1 2.1.1 1 2h5l-1 3-27-1v-1l2.1-.1 2.8-.3 2.7-.2c3-.5 3.7-2.3 6.8-2.6"/><path fill="#a38b7c" d="M103 255c8.1.3 8.1.3 11.6 3 1.4 2 1.4 2 1.4 4h-5l-2-2-1 2h-5z"/><path fill="#fdf8db" d="m115.7 204.3 2.3.7c.7 2.3.7 2.3 1 5-1.1 1.8-1.1 1.8-3 3-2.6.3-2.6.3-5 0-1-1-1-1-1.3-3.4.3-2.6.3-2.6 1.5-4.5 1.8-1.1 1.8-1.1 4.5-.8"/><path fill="#9a4d09" d="m20 107 3 1-1 21h-3v-9.8q-.2-6.1 1-12.2"/><path fill="#ecab44" d="m117 231 9 1v5c-2 2-2 2-4.5 2.3L119 239c-2.2-3.2-2.2-4.3-2-8"/><path fill="#aa621b" d="M23 134c2 4 2.6 6.8 3.1 11.3l.5 3.8.4 2.9-3 1-1 3-1-4.2-.6-2.4C21 147 21 147 21 143h2z"/><path fill="#a7621c" d="M75.7 30.9H78l2 .1a23 23 0 0 1-15 8l-2-2c7.7-6.3 7.7-6.3 12.7-6.1"/><path fill="#8f440d" d="m103 204 2 1q-.6 3.8-2 7.3-2 5.7-3 11.7c-2.5-2.5-2.3-3.4-2.3-6.8 0-4.2.5-7 3.3-10.2h2z"/><path fill="#945219" d="M216 152h4l-1 9h-2l-1 4-4-1z"/><path fill="#ec9f46" d="M48 74c.7 1.6.7 1.6 1 4l-3.7 7A62 62 0 0 0 38 104h-1a27 27 0 0 1 3.3-15l.9-2q3-6.7 6.8-13"/><path fill="#9b3d12" d="m103 197 1 4 1.5-1c3.7-2 5.7-3 10-2.7l2.5.7-3 2-6.2 4.7C107 206 107 206 105 207c-3-4.3-3-4.3-2.7-7.8z"/><path fill="#986335" d="m209 201 3 1h-2l.9 2.6c.1 3.4.1 3.4-1 5.2-3 3-3 3-4.9 4.2-2.2-.3-2.2-.3-4-1v-3l5-4c1.8-2.7 1.8-2.7 3-5"/><path fill="#cc3920" d="M67 157h3a32 32 0 0 1-3 8l-1 2.1c-1 1.9-1 1.9-3 4.9l-1-2-1 2-2-1 3.4-6.4 1-1.9C66 158.1 66 158.1 67 157"/><path fill="#e5933e" d="m64 56 3 1-2.4 2.3A72 72 0 0 0 50 77c-.7-1.7-.7-1.7-1-4 3.6-6.5 9.6-11.9 15-17"/><path fill="#efb551" d="M42 155c2.8 3.2 3.1 4.5 4 9l-13-1v-3l3.4-.2c3.6-.8 3.6-.8 5-2.9z"/><path fill="#856759" d="m139 255 4 1v3l3.4.4 3.6.6 1 2h-14z"/><path fill="#a25818" d="M127 229h2l-1 5 9-3v5a14 14 0 0 1-9 2c-1.5-3-1-5.7-1-9"/><path fill="#b98553" d="M20 101h2c2 4.1 2.2 7.5 2 12h-1l-.4-2.4L22 108l-2-1-1 22h-1c-.4-19.5-.4-19.5 2-28"/><path fill="#b0815c" d="M225 176h1a33 33 0 0 1-2 15h-5l2-14h1v7l2-1z"/><path fill="#c3935d" d="M180 176v2l2 1-3.1.8c-4 1-6.7 2.8-9.9 5.2l-3-2c8-7 8-7 14-7"/><path fill="#fce18e" d="m89 34-3 1.3C83 37 83 37 82.2 39.2L82 41h-4l-5 1v-3l4.3-2.4 2.3-1.4C83.3 33.3 85 32.7 89 34"/><path fill="#92796a" d="m127 255 4 1v3l4 2v1h-13l1-2h3z"/><path fill="#9f230a" d="m140 193 3 1q.4 4.5 0 9c-2 2-2 2-4 3l-2-1v-3h2z"/><path fill="#f5ece1" d="M26 170c1.8 3 2.2 5.2 2.1 8.8v2.4L28 183h-2v5l-2-1-.1-5.7v-3.2c.1-3.1.8-5.3 2.1-8.1"/><path fill="#a35c14" d="M106 20c1.8 2 1.8 2 3 4a48 48 0 0 1-13 1v-3c3.5-1.6 6.2-2.6 10-2"/><path fill="#d58827" d="m113 227 1 2-1 3h2v2c-4.8-.4-7-1.3-10-5 3.2-2.2 4.3-2.2 8-2"/><path fill="#964710" d="M137 205c2.3.2 2.3.2 5 1 3 3.6 3.3 6.4 3 11h-3l-.8-2.1L140 212l-1.1-2.7z"/><path fill="#b07944" d="M155 184h14l-2 4-4.3-.4-2.4-.3C158 187 158 187 155 186z"/><path fill="#eb9d39" d="M123 191h7v5h-13v-1l5-1z"/><path fill="#ae2a19" d="m194 160 .4 1.9c.6 2.1.6 2.1 1.6 4.1a16 16 0 0 1-11 5v-2l3.4-3c2.4-2 3.8-3.3 5.6-6"/><path fill="#a86217" d="M101 215h1l.4 2.5.5 3.3.6 3.3c.5 2.9.5 2.9 1.5 5.9h-5v-2l-2-1 1-2a43 43 0 0 0 2-10"/><path fill="#a71f0f" d="M175 159c1.8.1 1.8.1 4 1 3.4 4.9 3.3 9.3 3 15h-1l-1-9h-3a12 12 0 0 1-2-7"/><path fill="#ac450e" d="M128 197c4.6-.4 4.6-.4 6.6 1.4l1.4 1.6 3 2h-2l-1 3c-6.8-3.4-6.8-3.4-8-6.2z"/><path fill="#efce9c" d="M177 166c3 3 2.6 5.8 3 10l-7 2 1-3h2v-3.4c0-3.6 0-3.6 1-5.6"/><path fill="#af2b18" d="M164 148c5.3 2.5 9.5 6.2 14 10l-1 2-2-1-1 2-1.2-1.6z"/><path fill="#a85b12" d="M24 94h2l-.4 4.3-.2 2.4C25 103 25 103 23 106c-1.8-3.8-2.2-6-1-10h2z"/><path fill="#c2583f" d="M163 84c3 3.2 3.4 5.3 3.3 9.6V97l-.1 3.4v3.4l-.2 8.3h-1l-.2-3.6-.2-4.7-.2-2.3V99l-.2-2c-.2-2-.2-2-.7-4q-.8-4.5-.5-9"/><path fill="#ae6f2d" d="M138 20c5.2-.2 9.1.4 14 2l-3 1-1 2c-2.4.8-2.4.8-5 1-3.1-2-3.4-2.8-5-6"/><path fill="#f78959" d="M108 191h3c-.2 1.9-.2 1.9-1 4-1.9 1.3-1.9 1.3-4 2l-3-1c1.1-5 1.1-5 5-5"/><path fill="#c48746" d="m121 185-1 3h5v1l-4.7.7-2.7.4c-3.2-.1-4.3-1-6.6-3.1 3.4-2 6-2.2 10-2"/><path fill="#f5d9a4" d="M120 183a25 25 0 0 1 12 2h5v2a67 67 0 0 1-18-2z"/><path fill="#bc412b" d="m79 115 4.1 8.8 1.1 2.4.8 1.8-2 2h-2a39 39 0 0 1-2-15"/><path fill="#9e5512" d="M217 91c3 2 4.6 3.6 6 7 .2 2.4.2 2.4.1 4.8v2.4l-.1 1.8-.9-1.9C221 103 221 103 219.4 101.3c-2-3.4-2-6.4-2.4-10.3"/><path fill="#b62712" d="M200 89h2c1.6 4.2 2.2 7.5 2 12l-4-2z"/><path fill="#a56d3f" d="m171 223-1 5-5 1-1-2-4-2c7.6-2 7.6-2 11-2"/><path fill="#c8311f" d="M162 144c4.8 2.5 7.9 4.5 11 9h-3l-4-4-4-1-2-2h2z"/><path fill="#904912" d="M126 236h2c.6 1.9.6 1.9 1 4-2 2-2 2-4 2.2l-6-.2 2.4-1.9C124 238 124 238 126 236"/><path fill="#c59769" d="M163 187v1l-1.8.2-2.4.2-2.4.3A48 48 0 0 0 150 190l-1-4c4.1-2 9.6 0 14 1"/><path fill="#a05c21" d="m218 144 1 3h3l-1 8-3-1a18 18 0 0 1 0-10"/><path fill="#fdfafa" d="M79 98h1l1 5h1c.3 6 .3 6 0 8l-3 2z"/><path fill="#a56220" d="M220 98h1l1 5 2-1v7h-2l-2 2-.6-4.8-.3-2.7C219 101 219 101 220 98"/><path fill="#f1c898" d="m146 137 3 1-3 1v2l7 1v1h-9l-1-4z"/><path fill="#f3ad4d" d="M192 71h2v2h2c4 6.5 4 6.5 3.6 9.2L199 84l-3.5-6-2-3.3C192 72 192 72 192 71"/><path fill="#f2e2ab" d="m36 72 1 2h2c-.7 2.4-.7 2.4-2 5-2.6 1.3-2.6 1.3-5 2 1-3.4 2-6 4-9"/><path fill="#fdeba5" d="M62 50c-1.3 2.9-2.6 5-5 7h-2l-1-3c3.5-4 3.5-4 8-4"/><path fill="#836352" d="M103 255h4v7h-4z"/><path fill="#b58152" d="M98 222h1l-1 7-1.6-1a22 22 0 0 0-8.2-1.6l-3-.3L83 226v-1l15-1z"/><path fill="#af7a4c" d="m191 216-1 5-7-1v-1l-5-1v-1l4.8-.5 2.7-.3c2.5-.2 2.5-.2 5.5-.2"/><path fill="#f1bd54" d="m125 199 2 2-2.3.1-3 .3-2.9.2A17 17 0 0 0 112 204l1-4a46 46 0 0 1 12-1"/><path fill="#e19c3a" d="m212 159 1 3-2 2c-2.4-.2-2.4-.2-5.1-.9l-2.8-.6L201 162c2.4-2.4 3.3-2.3 6.6-2.6l2.5-.3z"/><path fill="#9f530f" d="m20 130 3 2c.3 2.6.3 2.6.2 5.6l-.1 3L23 143l-3-1z"/><path fill="#b93a15" d="M41 92h2l-.9 4.8-.5 2.7C41 102 41 102 39 105l-.1-4.2v-2.4C39 95.8 39.6 94.2 41 92"/><path fill="#d37e1e" d="M126 227h8v2l2 1-7 2-1-3z"/><path fill="#a97547" d="M29 197c2.6 1.4 2.6 1.4 5 3l-1 6-1-2-2-1-3-5z"/><path fill="#a93f23" d="M101 194h2v13l-2-1-.7-5.5-.2-3L100 195z"/><path fill="#ad7a51" d="M220 165c2.3 2.1 4 4 5 7-.4 2.3-.4 2.3-1 4h-2a25 25 0 0 1-2-11"/><path fill="#b07232" d="M24 86c2.1 3.5 2.5 7 3 11l-1-3h-2v2h-2c.5-3.5.9-6.7 2-10"/><path fill="#e08534" d="m64 56 3 1-9 9-1-3z"/><path fill="#f1d587" d="M183 45c4 1.3 6.4 3 9.3 6.1l2.1 2.2L196 55l-1 2-6-5.4L187.3 50 183 46z"/><path fill="#a66c3c" d="M196 214v5l-7 1c.8-2.4.8-2.4 2-5 3-1 3-1 5-1"/><path fill="#e8c3a7" d="M144 196c2.1 3.2 2.6 4.3 2 8-2 1.8-2 1.8-4 3a35 35 0 0 1 2-11"/><path fill="#b74e23" d="M107.8 186.8c3 .2 4.6.6 7.2 2.2v2l-4.4-.4-2.4-.2C106 190 106 190 104 188c1-1 1-1 3.8-1.2"/><path fill="#9f2c1b" d="M63 173v5h-5l-1-4c2-1 2-1 6-1"/><path fill="#ae6d24" d="m45 52 3 4-4 4-1-2-2-1z"/><path fill="#e9542b" d="M106 190h7c1.3 2.7.7 4.2 0 7l-4-1 2-5h-5z"/><path fill="#8d4f1a" d="m26 159 1 2 4 1v4l-3 1c-1.3-3-2-4.8-2-8"/><path fill="#bc3a17" d="M194 78c3.3 1.1 3.6 1.5 5.3 4.4L201 86l-1 2a40 40 0 0 1-6-7z"/><path fill="#ac661a" d="M173 34c3.4 1.2 5.6 2.3 8 5-1.7.8-1.7.8-4 1-2.7-2-2.7-2-5-4z"/><path fill="#8c4c11" d="M101 229c3.8 1 6.5 2 9 5-2.2.8-2.2.8-5 1-2.3-1.8-2.3-1.8-4-4z"/><path fill="#d48523" d="M118 229h8l1 7-1-4-8-1z"/><path fill="#945d2e" d="M209 208c-1.2 2.5-2 4-4 6-2.1-.4-2.1-.4-4-1v-2c2.9-2 4.4-3 8-3"/><path fill="#9b5d31" d="M75 185h10v2l-9 1z"/><path fill="#b5865d" d="M23 177h1l.1 5.2v2.9c-.1 3-.8 5.2-2.1 7.9-2-3-2-3-2-6l2-1c.4-2 .4-2 .6-4.6L23 179z"/><path fill="#fada83" d="m54 55 1 2c-5 6.6-5 6.6-10 8l2.8-3.3 1.6-1.9z"/><path fill="#aa6310" d="m52 47 1 2a15 15 0 0 1-6 7l-1-4z"/><path fill="#fcf3c1" d="M135 25c5.2-.2 9 0 14 2v1a37 37 0 0 1-14-2z"/><path fill="#986232" d="M58 218q4.5-.4 9 0c2 2 2 2 3 4h-4v-3q-4.6.6-9 2z"/><path fill="#b22a13" d="m103 197 1 4 1.7-1 2.2-1 2.2-1.2 1.9-.8 2 1a22 22 0 0 1-11 5c-1-3-1-3 0-6"/><path fill="#be8e61" d="m81 187 5.3-.2h2.9c3.2.2 4.5 1 6.8 3.2l-3 1-1.7-.9C88 188.5 84.7 188.4 81 188z"/><path fill="#664231" d="m90 258 6 1 1 3-8-1z"/><path fill="#e59533" d="m134 228 4 1c-3 3.7-5.2 4.6-10 5v-2l6-2z"/><path fill="#ad4028" d="M154 133c0 3 0 3-1.5 4.6L151 139v2h-5v-2l4-3.1 2.3-1.7z"/><path fill="#f6d8aa" d="m160 120 2 1c-1.2 4.4-2 6.6-6 9a36 36 0 0 1 4-10"/><path fill="#fcf6d3" d="m61 45 1 3-2.8 1.4C56 51 56 51 53 53c1.3-2.9 2.6-5 5-7z"/><path fill="#e58d38" d="M156 43a21 21 0 0 1 12 4v2l-12-5z"/><path fill="#fbd983" d="m89 34-3 1.3C83 37 83 37 82.2 39.2L82 41l-2-1c.2-2.4.2-2.4 1-5 3.3-1.9 4.4-2.2 8-1"/><path fill="#995313" d="M98 212c1.8 3.3 2.7 6.2 3 10l-2 2c-1.3-2.5-1.1-4.3-1-7.1V214z"/><path fill="#be2712" d="m62 169 1 4h-4l-1 2-2-1v-4l5 2z"/><path fill="#ef5d3d" d="m68 65 2 1a57 57 0 0 1-4 7l-3-1c3.9-5.9 3.9-5.9 5-7"/><path fill="#b17634" d="M95 21c2.2.3 2.2.3 4 1h-3v3l4 1-6 1-2-3c1.3-1.6 1.3-1.6 3-3"/><path fill="#9b8275" d="m139 255 4 1v3h-3c-1.7 1.5-1.7 1.5-3 3z"/><path fill="#af7a4a" d="m217 161 3 4-2 4-4-4h2z"/><path fill="#e7a644" d="M44 159c2 2 2 2 2 5l-10-2v-1h8z"/><path fill="#c13e28" d="M67 157h3a16 16 0 0 1-4 8v-7z"/><path fill="#fbd97f" d="m63 54 3 1-2.9 3-1.6 1.7C60 61 60 61 58 61a19 19 0 0 1 5-7"/><path fill="#9e570e" d="M73 31h7c-2.4 2.9-4.3 3.5-8 4z"/><path fill="#a5632f" d="m118 238 5 1-2 2 4 2h-7l-1-4z"/><path fill="#f7ba50" d="m111 225-5 4-3-2v-2c3-1 5-1 8 0"/><path fill="#de3620" d="m139 196 1 3-1 2-4-1v-3z"/><path fill="#f55535" d="M132 192h7l1 3-7-1z"/><path fill="#fceba6" d="M118.6 189h2.4c-2 3-2 3-5 4l-2 2c1-6 1-6 4.6-6"/><path fill="#b82515" d="M191 165v5l-6 1v-2c4.6-4 4.6-4 6-4"/><path fill="#9a1d0a" d="m198 159 1 3-2 3-3-1c.3-2 .3-2 1-4z"/><path fill="#a96b24" d="M25 144h1l1 8-3 1-1 3z"/><path fill="#f4e09e" d="m152.2 27.4 2.8.6v3l-9-2c3-2 3-2 6.2-1.6"/><path fill="#a45c11" d="m95 23-2 2 1 2-7-1c2.5-3.1 4.1-3.3 8-3"/><path fill="#b18056" d="m72 224 4 1v3l3 1a18 18 0 0 1-9-3h2z"/><path fill="#f1d9c1" d="M99 195h1v8l-4 2z"/><path fill="#cb3c29" d="m89 139 2 2c-2.4 2.9-4.3 3.5-8 4 3.8-4.9 3.8-4.9 6-6"/><path fill="#914b0f" d="M141 225h2v2l3 1h-3l-1 3-2-2c.4-2.1.4-2.1 1-4"/><path fill="#9b5013" d="M142 211h3v6h-3l-1-5z"/><path fill="#ecab46" d="M130 201c4.7 1.5 4.7 1.5 6.3 4.1l.7 1.9a16 16 0 0 1-8-5z"/><path fill="#9f6839" d="M220 190h3l-1 5-2 1-1-5z"/><path fill="#ecc28d" d="m177 166 2 2c-.4 3.1-.4 3.1-1 6h-2c-.1-5.7-.1-5.7 1-8"/><path fill="#ba2112" d="m164 117 4 2-2 5-2-1z"/><path fill="#f7e197" d="M176 39c6.9 3.8 6.9 3.8 8 6-3.9-.6-6-2.5-9-5z"/><path fill="#ebe7e5" d="m99 261 3 1Z"/></svg>